<svg width="227" height="45" fill="none" xmlns="http://www.w3.org/2000/svg"><g clip-path="url(#a)"><path d="M0 9.454h12.967c3.919 0 6.719.736 8.395 2.211 1.676 1.475 2.515 3.923 2.515 7.34v16.538h-6.894V19.85c0-1.951-.303-3.217-.906-3.796-.607-.581-1.819-.87-3.64-.87h-5.54v20.362H0V9.454Zm54.254 13.058c0 4.095-1.245 7.364-3.736 9.805-2.491 2.442-5.852 3.662-10.077 3.662-4.224 0-7.597-1.223-10.112-3.674-2.515-2.45-3.773-5.716-3.773-9.793 0-4.077 1.258-7.37 3.773-9.83 2.515-2.459 5.885-3.686 10.112-3.686 4.228 0 7.543 1.23 10.052 3.687 2.507 2.46 3.761 5.734 3.761 9.83Zm-20.467 0c0 2.484.581 4.416 1.742 5.804 1.16 1.387 2.782 2.08 4.864 2.08s3.685-.693 4.864-2.08c1.176-1.387 1.767-3.32 1.767-5.804 0-2.484-.585-4.413-1.755-5.791-1.17-1.379-2.794-2.07-4.876-2.07-2.082 0-3.682.694-4.852 2.082-1.17 1.387-1.754 3.313-1.754 5.78Zm20.31-13.058h7.743l7.233 18.523 7.67-18.523h7.428L72.583 35.546h-7.428L54.1 9.454h-.003Zm32.241 0h14.128c3.564 0 6.249.818 8.055 2.453 1.806 1.636 2.709 4.065 2.709 7.291v16.345H92.699c-2.597 0-4.594-.654-5.988-1.96-1.394-1.305-2.094-3.159-2.094-5.561 0-2.965.803-5.095 2.406-6.385 1.603-1.29 4.27-1.936 7.994-1.936h9.073v-.654c0-1.548-.454-2.635-1.366-3.266-.912-.63-2.537-.942-4.876-.942H86.332V9.448l.006.006ZM95.505 30.3h8.637v-5.392h-8.128c-1.612 0-2.724.218-3.34.654-.611.437-.918 1.194-.918 2.272 0 .918.246 1.56.737 1.924.49.363 1.497.545 3.012.545V30.3Z" fill="#245BA9"/><path d="M115.406 30.106h14.54c1.291 0 2.231-.203 2.819-.606.588-.403.881-1.048.881-1.935 0-.888-.3-1.536-.894-1.948-.597-.412-1.533-.618-2.806-.618h-5.952c-3.53 0-5.918-.54-7.161-1.62-1.242-1.079-1.863-3-1.863-5.756 0-2.756.748-4.868 2.248-6.191 1.5-1.32 3.822-1.984 6.967-1.984h14.807v5.44h-12.167c-1.985 0-3.273.173-3.87.52-.597.35-.894.964-.894 1.852 0 .805.261 1.4.785 1.778.524.378 1.351.57 2.479.57h6.243c2.854 0 5.03.666 6.53 1.995 1.5 1.33 2.249 3.254 2.249 5.768s-.667 4.386-1.997 5.9c-1.331 1.515-3.046 2.272-5.14 2.272h-17.804v-5.44.003ZM143.823 0h6.846v9.454h6.121c3.84 0 6.616.754 8.334 2.26 1.718 1.508 2.576 3.937 2.576 7.29v16.54h-6.943V19.8c0-1.79-.327-3.005-.979-3.65-.654-.645-1.858-.966-3.615-.966h-5.491v20.361h-6.846V0h-.003Zm54.348 22.512c0 4.095-1.245 7.364-3.736 9.805-2.492 2.442-5.852 3.662-10.077 3.662-4.224 0-7.597-1.223-10.112-3.674-2.516-2.45-3.773-5.716-3.773-9.793 0-4.077 1.257-7.37 3.773-9.83 2.515-2.459 5.885-3.686 10.112-3.686 4.228 0 7.543 1.23 10.052 3.687 2.51 2.46 3.761 5.734 3.761 9.83Zm-20.465 0c0 2.484.582 4.416 1.743 5.804 1.161 1.387 2.782 2.08 4.864 2.08s3.685-.693 4.864-2.08c1.175-1.387 1.766-3.32 1.766-5.804 0-2.484-.584-4.413-1.754-5.791-1.17-1.379-2.794-2.07-4.876-2.07-2.082 0-3.682.694-4.852 2.082-1.17 1.387-1.755 3.313-1.755 5.78Zm23.287-13.058h13.282c4 0 7.122 1.178 9.361 3.529 2.243 2.353 3.364 5.634 3.364 9.841 0 1.727-.233 3.308-.703 4.753a12.45 12.45 0 0 1-2.127 3.953c-1.131 1.435-2.485 2.462-4.064 3.083-1.582.621-3.676.93-6.291.93h-5.928v9.454h-6.894V9.454Zm6.894 5.634V29.96h4.209c2.791 0 4.767-.588 5.928-1.766 1.161-1.176 1.742-3.135 1.742-5.877 0-2.741-.533-4.51-1.597-5.598-1.063-1.087-2.912-1.632-5.539-1.632h-4.743Z" fill="#A7A9AC"/></g><defs><clipPath id="a"><path fill="#fff" d="M0 0h227v45H0z"/></clipPath></defs></svg>